<svg version="1" xmlns="http://www.w3.org/2000/svg" width="1365.333" height="1365.333" viewBox="0 0 1024.000000 1024.000000"><path d="M485.7 10.1c-54 2.7-109.5 14.8-160.2 35.1C209.5 91.6 113.7 180.9 59.7 293 13.8 388.1-.9 492.1 16.6 597c10.7 64.1 35.9 129.2 71.8 185.5 11.5 18.1 30.8 44.1 41.7 56.1l3.7 4.1.6-5.1c.3-2.8.6-6.7.6-8.6 0-1.9.4-4 .8-4.7.4-.6 17.1-4.1 37.1-7.7 20-3.6 36.5-6.7 36.6-6.8.1-.3 92.5-576.2 92.8-578.8.2-1.1-7.3-2.9-34.3-8.1-19-3.6-34.5-7-34.4-7.5.1-.5 3.4-13.2 7.4-28.2l7.4-27.2h7.5c4.2 0 38 .7 75.1 1.5 60.4 1.3 78.9 1.3 175.5-.1 112.9-1.7 145.4-1.5 164.5 1.1 46.4 6.2 81.8 20 110.6 43.1 24.1 19.2 38.6 43.5 44.1 73.9 1.9 11 2.2 38.4.4 50-5.9 37.7-20.9 67.7-48.3 96.1-21.8 22.6-45.8 39.8-81 57.8-24.3 12.5-43.1 20-104.3 41.6-17.6 6.2-32.3 11.6-32.7 11.9-.4.4 24.5 9.6 55.4 20.6 30.8 11 56.6 20.4 57.3 21 .7.5 25.2 52.1 54.6 114.6l53.4 113.7 26.3 8.3c21.1 6.6 26.1 8.6 25.8 9.8-.3.9-3.3 13.7-6.8 28.4l-6.3 26.9-10-.6c-33.7-1.9-111.9-2.8-151.3-1.7-22.9.6-45.1 1.4-49.3 1.7l-7.5.6-63.3-153.9-63.3-153.8-5.6-5.7-5.6-5.8h-14.8c-8.1 0-14.8.1-14.8.2 0 .2-9 56.1-19.9 124.3-11 68.2-19.8 124.1-19.6 124.3.1.2 15.5 3.2 34.1 6.8 18.7 3.5 34.2 6.5 34.5 6.7.7.2-13.9 54.8-14.9 55.9-.4.3-31.5-.1-69.2-.9-65.4-1.4-141.6-1.2-192.4.6l-17.9.6 10.3 9c55 47.7 112.4 80.4 178.7 101.9 87.6 28.3 183.1 31.8 273.1 10C776.2 965.1 899.5 865.5 964.3 731c51-105.7 63.7-224.3 36.1-337.8-28.2-115.9-96.7-217.8-193.9-288.4-69.9-50.7-151.7-82.4-238-92.3-14.2-1.6-48.9-3.6-60-3.3-3.8 0-14.1.5-22.8.9z"/><path d="M489.5 216.2c-.7 1.9-42.5 261.4-42.5 263.8 0 2 .4 2 52.9 2h53l6.7-5.1c32.2-24.3 53.5-55.7 64.9-95.3 8.4-29.4 10.8-70.7 5.5-96.5-4.2-20.7-11.1-34.2-24-47.1-13-13.1-27.4-19.6-48-22-13.1-1.5-68-1.3-68.5.2z"/></svg>